#usda 1.0
(
    startTimeCode = 1001
    endTimeCode = 1228
    framesPerSecond = 25
    timeCodesPerSecond = 25
    metersPerUnit = 0.01
    upAxis = "Y"
)
def Camera "TrackedCamera"
{
    double3 xformOp:translate.timeSamples = {
        1001: (203.925, 112.332, -127.048),
        1002: (203.893, 112.329, -127.028),
        1003: (203.899, 112.326, -127.02),
        1004: (203.897, 112.323, -127.023),
        1005: (203.928, 112.323, -127.034),
        1006: (203.917, 112.326, -127.045),
        1007: (203.897, 112.329, -127.023),
        1008: (203.896, 112.323, -127.013),
        1009: (203.905, 112.329, -127.013),
        1010: (203.896, 112.329, -127.037),
        1011: (203.896, 112.329, -127.034),
        1012: (203.915, 112.329, -127.036),
        1013: (203.917, 112.325, -127.042),
        1014: (203.893, 112.326, -127.025),
        1015: (203.896, 112.328, -127.036),
        1016: (203.909, 112.332, -127.025),
        1017: (203.917, 112.328, -127.026),
        1018: (203.893, 112.328, -127.039),
        1019: (203.914, 112.326, -127.019),
        1020: (203.909, 112.328, -127.029),
        1021: (203.932, 112.329, -127.055),
        1022: (203.909, 112.328, -127.045),
        1023: (203.935, 112.329, -127.022),
        1024: (203.912, 112.329, -127.031),
        1025: (203.928, 112.331, -127.028),
        1026: (203.903, 112.332, -127.003),
        1027: (203.912, 112.334, -127.007),
        1028: (203.903, 112.338, -127.013),
        1029: (203.925, 112.338, -127.028),
        1030: (203.923, 112.334, -127.022),
        1031: (203.905, 112.332, -127.007),
        1032: (203.894, 112.331, -127.002),
        1033: (203.909, 112.328, -127.029),
        1034: (203.903, 112.329, -127.034),
        1035: (203.909, 112.321, -127.016),
        1036: (203.905, 112.323, -127.016),
        1037: (203.923, 112.323, -127.036),
        1038: (203.909, 112.325, -127.029),
        1039: (203.891, 112.32, -127.026),
        1040: (203.908, 112.323, -127.017),
        1041: (203.911, 112.323, -127.029),
        1042: (203.896, 112.321, -127.019),
        1043: (203.885, 112.323, -127.028),
        1044: (203.918, 112.328, -127.042),
        1045: (203.908, 112.331, -127.049),
        1046: (203.909, 112.329, -127.013),
        1047: (203.92, 112.331, -127.049),
        1048: (203.903, 112.328, -127.013),
        1049: (203.903, 112.323, -127.031),
        1050: (203.905, 112.328, -127.028),
        1051: (203.926, 112.329, -127.025),
        1052: (203.937, 112.328, -127.049),
        1053: (203.912, 112.328, -127.043),
        1054: (203.893, 112.326, -127.016),
        1055: (203.897, 112.325, -127.02),
        1056: (203.896, 112.328, -127.023),
        1057: (203.914, 112.326, -127.028),
        1058: (203.894, 112.323, -127.055),
        1059: (203.888, 112.318, -127.045),
        1060: (203.908, 112.328, -127.045),
        1061: (203.905, 112.335, -127.043),
        1062: (203.917, 112.328, -127.011),
        1063: (203.917, 112.323, -127.023),
        1064: (203.92, 112.321, -127.023),
        1065: (203.886, 112.325, -127.031),
        1066: (203.915, 112.325, -127.036),
        1067: (203.896, 112.326, -127.02),
        1068: (203.883, 112.331, -127.026),
        1069: (203.911, 112.328, -127.016),
        1070: (203.914, 112.328, -127.016),
        1071: (203.896, 112.331, -127.026),
        1072: (203.922, 112.326, -127.036),
        1073: (203.9, 112.328, -127.02),
        1074: (203.906, 112.331, -127.016),
        1075: (203.905, 112.326, -127.037),
        1076: (203.893, 112.328, -127.019),
        1077: (203.902, 112.328, -127.013),
        1078: (203.893, 112.328, -127.011),
        1079: (203.909, 112.328, -127.026),
        1080: (203.911, 112.329, -127.063),
        1081: (203.899, 112.338, -127.026),
        1082: (203.902, 112.328, -127.028),
        1083: (203.909, 112.325, -127.039),
        1084: (203.899, 112.323, -127.017),
        1085: (203.883, 112.321, -127.034),
        1086: (203.908, 112.323, -127.032),
        1087: (203.896, 112.326, -127.04),
        1088: (203.9, 112.328, -127.029),
        1089: (203.912, 112.329, -127.051),
        1090: (203.917, 112.321, -127.025),
        1091: (203.9, 112.326, -127.023),
        1092: (203.906, 112.325, -127.002),
        1093: (203.896, 112.331, -127.028),
        1094: (203.92, 112.328, -127.043),
        1095: (203.918, 112.328, -127.039),
        1096: (203.894, 112.325, -127.039),
        1097: (203.882, 112.331, -127.034),
        1098: (203.888, 112.328, -127.026),
        1099: (203.922, 112.321, -127.043),
        1100: (203.94, 112.323, -127.032),
        1101: (203.903, 112.325, -127.031),
        1102: (203.922, 112.331, -127.034),
        1103: (203.908, 112.332, -127.019),
        1104: (203.923, 112.329, -127.022),
        1105: (203.917, 112.325, -127.032),
        1106: (203.903, 112.331, -127.039),
        1107: (203.912, 112.332, -127.031),
        1108: (203.891, 112.331, -127.023),
        1109: (203.903, 112.329, -127.019),
        1110: (203.877, 112.332, -127.017),
        1111: (203.902, 112.334, -127.016),
        1112: (203.889, 112.337, -127.025),
        1113: (203.911, 112.329, -127.037),
        1114: (203.886, 112.329, -127.029),
        1115: (203.896, 112.329, -127.026),
        1116: (203.883, 112.331, -127.022),
        1117: (203.889, 112.329, -127.005),
        1118: (203.886, 112.332, -127.029),
        1119: (203.896, 112.332, -127.04),
        1120: (203.909, 112.325, -127),
        1121: (203.918, 112.328, -127.039),
        1122: (203.9, 112.328, -127.031),
        1123: (203.914, 112.331, -127.049),
        1124: (203.923, 112.329, -127.028),
        1125: (203.912, 112.326, -127.037),
        1126: (203.914, 112.323, -127.04),
        1127: (203.911, 112.325, -127.031),
        1128: (203.917, 112.326, -127.02),
        1129: (203.905, 112.329, -127.042),
        1130: (203.914, 112.329, -127.031),
        1131: (203.906, 112.326, -127.032),
        1132: (203.894, 112.323, -127.02),
        1133: (203.905, 112.321, -127.013),
        1134: (203.911, 112.329, -127.026),
        1135: (203.929, 112.328, -127.039),
        1136: (203.908, 112.328, -127.028),
        1137: (203.896, 112.321, -127.034),
        1138: (203.926, 112.315, -127.032),
        1139: (203.899, 112.325, -127.034),
        1140: (203.885, 112.326, -127.048),
        1141: (203.9, 112.32, -127.04),
        1142: (203.899, 112.328, -127.025),
        1143: (203.911, 112.329, -127.042),
        1144: (203.917, 112.335, -127.025),
        1145: (203.889, 112.332, -127.036),
        1146: (203.917, 112.326, -127.026),
        1147: (203.902, 112.326, -127.025),
        1148: (203.911, 112.318, -127.034),
        1149: (203.908, 112.321, -127.005),
        1150: (203.917, 112.325, -127.036),
        1151: (203.873, 112.328, -127.023),
        1152: (203.918, 112.326, -127.032),
        1153: (203.876, 112.325, -127.013),
        1154: (203.902, 112.325, -127.025),
        1155: (203.889, 112.331, -127.04),
        1156: (203.905, 112.329, -127.025),
        1157: (203.912, 112.326, -127.04),
        1158: (203.888, 112.329, -127.034),
        1159: (203.903, 112.329, -127.022),
        1160: (203.922, 112.331, -127.037),
        1161: (203.908, 112.331, -127.034),
        1162: (203.899, 112.328, -127.034),
        1163: (203.883, 112.331, -127.025),
        1164: (203.909, 112.331, -127.054),
        1165: (203.935, 112.325, -127.02),
        1166: (203.888, 112.331, -127.036),
        1167: (203.897, 112.329, -127.028),
        1168: (203.925, 112.325, -127.023),
        1169: (203.931, 112.328, -127.048),
        1170: (203.905, 112.329, -127.039),
        1171: (203.894, 112.325, -127.036),
        1172: (203.899, 112.331, -127.025),
        1173: (203.908, 112.332, -127.028),
        1174: (203.896, 112.329, -127.022),
        1175: (203.911, 112.325, -127.034),
        1176: (203.905, 112.321, -127.042),
        1177: (203.918, 112.326, -127.029),
        1178: (203.911, 112.329, -127.032),
        1179: (203.899, 112.331, -127.025),
        1180: (203.917, 112.329, -127.036),
        1181: (203.917, 112.328, -127.04),
        1182: (203.931, 112.331, -127.049),
        1183: (203.909, 112.332, -127.036),
        1184: (203.909, 112.331, -127.032),
        1185: (203.908, 112.334, -127.028),
        1186: (203.912, 112.332, -127.031),
        1187: (203.922, 112.329, -127.031),
        1188: (203.894, 112.332, -127.019),
        1189: (203.896, 112.323, -127.028),
        1190: (203.9, 112.329, -127.032),
        1191: (203.882, 112.329, -127.019),
        1192: (203.9, 112.329, -127.036),
        1193: (203.899, 112.326, -127.031),
        1194: (203.897, 112.331, -127.04),
        1195: (203.894, 112.331, -127.014),
        1196: (203.897, 112.329, -127.048),
        1197: (203.896, 112.326, -127.043),
        1198: (203.885, 112.331, -127.026),
        1199: (203.9, 112.325, -127.028),
        1200: (203.897, 112.331, -127.055),
        1201: (203.912, 112.325, -127.036),
        1202: (203.883, 112.325, -127.011),
        1203: (203.885, 112.328, -127.04),
        1204: (203.894, 112.328, -127.049),
        1205: (203.894, 112.328, -127.025),
        1206: (203.896, 112.328, -127.028),
        1207: (203.917, 112.328, -127.034),
        1208: (203.896, 112.328, -127.032),
        1209: (203.911, 112.326, -127.042),
        1210: (203.902, 112.323, -127.02),
        1211: (203.903, 112.32, -127.031),
        1212: (203.906, 112.325, -127.039),
        1213: (203.894, 112.331, -127.065),
        1214: (203.889, 112.331, -127.039),
        1215: (203.917, 112.328, -127.032),
        1216: (203.886, 112.331, -127.013),
        1217: (203.894, 112.335, -127.031),
        1218: (203.906, 112.329, -127.045),
        1219: (203.902, 112.325, -127.032),
        1220: (203.909, 112.331, -127.036),
        1221: (203.88, 112.331, -127.037),
        1222: (203.893, 112.332, -127.051),
        1223: (203.905, 112.325, -127.017),
        1224: (203.897, 112.321, -127.042),
        1225: (203.897, 112.328, -127.036),
        1226: (203.931, 112.329, -127.04),
        1227: (203.893, 112.323, -127.028),
        1228: (203.922, 112.329, -127.06)
    }
    float3 xformOp:rotateXYZ.timeSamples = {
        1001: (1.26126, -8.27908, -1.36652),
        1002: (1.2616, -8.27896, -1.36688),
        1003: (1.26138, -8.27863, -1.3667),
        1004: (1.26151, -8.27844, -1.36676),
        1005: (1.26151, -8.27814, -1.36682),
        1006: (1.26144, -8.27802, -1.36646),
        1007: (1.26138, -8.27771, -1.36642),
        1008: (1.26138, -8.27771, -1.36624),
        1009: (1.26126, -8.2778, -1.36615),
        1010: (1.26096, -8.27759, -1.36612),
        1011: (1.26086, -8.27737, -1.36557),
        1012: (1.26083, -8.27731, -1.36545),
        1013: (1.26083, -8.27747, -1.36554),
        1014: (1.26111, -8.27734, -1.36569),
        1015: (1.26147, -8.27707, -1.36566),
        1016: (1.26178, -8.27719, -1.36588),
        1017: (1.26147, -8.27707, -1.36603),
        1018: (1.26138, -8.27734, -1.36633),
        1019: (1.26144, -8.2774, -1.36655),
        1020: (1.2616, -8.27756, -1.36649),
        1021: (1.26175, -8.2774, -1.36642),
        1022: (1.26172, -8.27719, -1.36636),
        1023: (1.26169, -8.27701, -1.36652),
        1024: (1.26199, -8.27695, -1.36636),
        1025: (1.26263, -8.2771, -1.36633),
        1026: (1.26297, -8.27664, -1.36646),
        1027: (1.26309, -8.27667, -1.36655),
        1028: (1.26303, -8.27682, -1.36658),
        1029: (1.26257, -8.27704, -1.36667),
        1030: (1.26233, -8.27744, -1.367),
        1031: (1.26245, -8.27762, -1.36664),
        1032: (1.26279, -8.27756, -1.36694),
        1033: (1.26273, -8.27817, -1.36679),
        1034: (1.26266, -8.27808, -1.36691),
        1035: (1.26239, -8.27856, -1.3667),
        1036: (1.26257, -8.27863, -1.36624),
        1037: (1.26242, -8.27856, -1.36572),
        1038: (1.26254, -8.27835, -1.36563),
        1039: (1.26321, -8.27856, -1.36566),
        1040: (1.26352, -8.27911, -1.36566),
        1041: (1.26331, -8.27927, -1.36594),
        1042: (1.26321, -8.27948, -1.36615),
        1043: (1.26355, -8.27975, -1.36612),
        1044: (1.26367, -8.27985, -1.36606),
        1045: (1.26349, -8.27942, -1.36575),
        1046: (1.2634, -8.27982, -1.36563),
        1047: (1.26297, -8.28018, -1.3652),
        1048: (1.26263, -8.28033, -1.36526),
        1049: (1.2626, -8.28061, -1.36545),
        1050: (1.26343, -8.2796, -1.36554),
        1051: (1.26349, -8.27933, -1.36536),
        1052: (1.26349, -8.27866, -1.36517),
        1053: (1.26364, -8.27869, -1.3653),
        1054: (1.26364, -8.27844, -1.36545),
        1055: (1.26367, -8.27844, -1.36572),
        1056: (1.26334, -8.27869, -1.36545),
        1057: (1.26321, -8.27896, -1.36505),
        1058: (1.26294, -8.27945, -1.36453),
        1059: (1.26331, -8.27948, -1.3645),
        1060: (1.26328, -8.27975, -1.36456),
        1061: (1.26337, -8.27991, -1.3645),
        1062: (1.26328, -8.2793, -1.36395),
        1063: (1.26334, -8.27893, -1.3638),
        1064: (1.26312, -8.27921, -1.36365),
        1065: (1.26303, -8.27921, -1.36334),
        1066: (1.26324, -8.27951, -1.36331),
        1067: (1.26315, -8.27936, -1.36343),
        1068: (1.26312, -8.27948, -1.36368),
        1069: (1.26294, -8.2796, -1.36349),
        1070: (1.26276, -8.27979, -1.36389),
        1071: (1.26279, -8.27994, -1.36398),
        1072: (1.26282, -8.2803, -1.36395),
        1073: (1.26297, -8.28018, -1.36404),
        1074: (1.26306, -8.28027, -1.36414),
        1075: (1.26355, -8.28015, -1.36414),
        1076: (1.2637, -8.28003, -1.36426),
        1077: (1.26334, -8.2803, -1.36465),
        1078: (1.26294, -8.28049, -1.36472),
        1079: (1.26285, -8.28058, -1.36496),
        1080: (1.263, -8.28073, -1.36453),
        1081: (1.26343, -8.28036, -1.36481),
        1082: (1.26367, -8.28, -1.36481),
        1083: (1.26346, -8.28006, -1.36475),
        1084: (1.26352, -8.28055, -1.36478),
        1085: (1.26401, -8.28067, -1.36499),
        1086: (1.26428, -8.28076, -1.36505),
        1087: (1.26456, -8.28058, -1.36496),
        1088: (1.26437, -8.28055, -1.36472),
        1089: (1.26395, -8.28094, -1.36484),
        1090: (1.26373, -8.28046, -1.36502),
        1091: (1.26382, -8.28043, -1.36505),
        1092: (1.26389, -8.28006, -1.36499),
        1093: (1.26367, -8.27994, -1.36505),
        1094: (1.26324, -8.27969, -1.36523),
        1095: (1.26309, -8.27942, -1.36563),
        1096: (1.26343, -8.27896, -1.36618),
        1097: (1.26321, -8.27887, -1.3667),
        1098: (1.26352, -8.27826, -1.36612),
        1099: (1.26373, -8.27817, -1.36627),
        1100: (1.26392, -8.27798, -1.36639),
        1101: (1.26352, -8.27798, -1.36636),
        1102: (1.26294, -8.27795, -1.36707),
        1103: (1.26291, -8.27832, -1.36752),
        1104: (1.26263, -8.27847, -1.36743),
        1105: (1.26312, -8.27881, -1.36758),
        1106: (1.26315, -8.27829, -1.3674),
        1107: (1.26321, -8.27838, -1.36713),
        1108: (1.26297, -8.27856, -1.36734),
        1109: (1.26321, -8.27863, -1.36716),
        1110: (1.26303, -8.27872, -1.36713),
        1111: (1.26334, -8.2785, -1.36713),
        1112: (1.26309, -8.27887, -1.36685),
        1113: (1.26324, -8.27881, -1.36679),
        1114: (1.26358, -8.27847, -1.36691),
        1115: (1.26349, -8.27866, -1.36685),
        1116: (1.26352, -8.27878, -1.36673),
        1117: (1.26389, -8.27881, -1.36639),
        1118: (1.26392, -8.27896, -1.3663),
        1119: (1.26379, -8.2789, -1.36633),
        1120: (1.26373, -8.27917, -1.36655),
        1121: (1.26392, -8.27896, -1.36667),
        1122: (1.26389, -8.27878, -1.36655),
        1123: (1.26318, -8.27881, -1.36618),
        1124: (1.26294, -8.27832, -1.36642),
        1125: (1.26294, -8.27878, -1.36624),
        1126: (1.26318, -8.27844, -1.36581),
        1127: (1.26324, -8.27817, -1.36548),
        1128: (1.26312, -8.27777, -1.3653),
        1129: (1.26306, -8.27765, -1.36551),
        1130: (1.26291, -8.27734, -1.36557),
        1131: (1.26294, -8.27707, -1.36563),
        1132: (1.26331, -8.27737, -1.36588),
        1133: (1.26355, -8.27817, -1.36594),
        1134: (1.26379, -8.27817, -1.36569),
        1135: (1.26419, -8.27808, -1.36575),
        1136: (1.26404, -8.27777, -1.36606),
        1137: (1.26407, -8.2778, -1.36624),
        1138: (1.26425, -8.2774, -1.36639),
        1139: (1.26422, -8.27716, -1.3667),
        1140: (1.26416, -8.27667, -1.36636),
        1141: (1.26416, -8.2764, -1.36633),
        1142: (1.26407, -8.27673, -1.36612),
        1143: (1.26459, -8.27698, -1.36618),
        1144: (1.26456, -8.27698, -1.36578),
        1145: (1.2641, -8.27753, -1.36624),
        1146: (1.26413, -8.27756, -1.36578),
        1147: (1.26437, -8.27737, -1.36569),
        1148: (1.26413, -8.27771, -1.36581),
        1149: (1.26416, -8.27756, -1.36575),
        1150: (1.2645, -8.27765, -1.36566),
        1151: (1.26401, -8.27722, -1.36548),
        1152: (1.26398, -8.27737, -1.36554),
        1153: (1.26413, -8.27734, -1.36539),
        1154: (1.26431, -8.27731, -1.36526),
        1155: (1.2645, -8.27716, -1.36523),
        1156: (1.26486, -8.27713, -1.36523),
        1157: (1.26437, -8.27744, -1.36505),
        1158: (1.26459, -8.27713, -1.36536),
        1159: (1.26462, -8.27728, -1.36508),
        1160: (1.26483, -8.2771, -1.36523),
        1161: (1.26483, -8.27716, -1.36505),
        1162: (1.26508, -8.27719, -1.36505),
        1163: (1.26468, -8.27698, -1.36523),
        1164: (1.26437, -8.27765, -1.3653),
        1165: (1.26389, -8.27734, -1.36533),
        1166: (1.2637, -8.27731, -1.36536),
        1167: (1.26376, -8.27695, -1.36548),
        1168: (1.26379, -8.27679, -1.3656),
        1169: (1.26367, -8.27695, -1.36545),
        1170: (1.26379, -8.27707, -1.36581),
        1171: (1.26373, -8.27701, -1.36569),
        1172: (1.26428, -8.27695, -1.36563),
        1173: (1.26419, -8.27625, -1.36551),
        1174: (1.26392, -8.27628, -1.36609),
        1175: (1.26389, -8.2764, -1.36606),
        1176: (1.26364, -8.27658, -1.36606),
        1177: (1.2634, -8.27679, -1.36621),
        1178: (1.26334, -8.27643, -1.36621),
        1179: (1.26328, -8.27652, -1.366),
        1180: (1.26309, -8.27664, -1.36624),
        1181: (1.26315, -8.27737, -1.36615),
        1182: (1.26318, -8.27722, -1.36612),
        1183: (1.26288, -8.27713, -1.36615),
        1184: (1.26276, -8.27725, -1.36621),
        1185: (1.26257, -8.27707, -1.36603),
        1186: (1.26242, -8.27756, -1.36633),
        1187: (1.26254, -8.27756, -1.36652),
        1188: (1.26245, -8.27762, -1.36679),
        1189: (1.26251, -8.27789, -1.36691),
        1190: (1.26257, -8.27811, -1.36694),
        1191: (1.26273, -8.27826, -1.36716),
        1192: (1.26251, -8.27814, -1.36728),
        1193: (1.2626, -8.27805, -1.36725),
        1194: (1.26288, -8.27823, -1.36755),
        1195: (1.263, -8.27856, -1.36765),
        1196: (1.26288, -8.27917, -1.36777),
        1197: (1.26309, -8.27866, -1.36765),
        1198: (1.26312, -8.2785, -1.36755),
        1199: (1.26334, -8.27866, -1.36734),
        1200: (1.26355, -8.27856, -1.36783),
        1201: (1.26361, -8.27896, -1.36786),
        1202: (1.26379, -8.27933, -1.36777),
        1203: (1.26346, -8.27908, -1.36789),
        1204: (1.26337, -8.27887, -1.36783),
        1205: (1.26324, -8.27902, -1.36749),
        1206: (1.26337, -8.27887, -1.36746),
        1207: (1.26297, -8.27908, -1.36749),
        1208: (1.26291, -8.27914, -1.36722),
        1209: (1.26266, -8.27972, -1.36743),
        1210: (1.26242, -8.27942, -1.36755),
        1211: (1.26276, -8.27905, -1.36743),
        1212: (1.26254, -8.27866, -1.36716),
        1213: (1.26224, -8.27911, -1.36697),
        1214: (1.26224, -8.27942, -1.36713),
        1215: (1.26172, -8.27975, -1.36752),
        1216: (1.26157, -8.27972, -1.3674),
        1217: (1.26172, -8.28, -1.36789),
        1218: (1.26151, -8.27994, -1.36804),
        1219: (1.26169, -8.28018, -1.36792),
        1220: (1.26175, -8.28036, -1.36841),
        1221: (1.26172, -8.28027, -1.36819),
        1222: (1.26172, -8.28027, -1.36819),
        1223: (1.26196, -8.28046, -1.36804),
        1224: (1.26205, -8.27994, -1.36771),
        1225: (1.26218, -8.27966, -1.3674),
        1226: (1.26208, -8.27951, -1.36728),
        1227: (1.26184, -8.27933, -1.36728),
        1228: (1.26144, -8.27927, -1.36731)
    }
    uniform token[] xformOpOrder = ["xformOp:translate", "xformOp:rotateXYZ"]
    float focalLength.timeSamples = {
        1001: 35,
        1002: 35,
        1003: 35,
        1004: 35,
        1005: 35,
        1006: 35,
        1007: 35,
        1008: 35,
        1009: 35,
        1010: 35,
        1011: 35,
        1012: 35,
        1013: 35,
        1014: 35,
        1015: 35,
        1016: 35,
        1017: 35,
        1018: 35,
        1019: 35,
        1020: 35,
        1021: 35,
        1022: 35,
        1023: 35,
        1024: 35,
        1025: 35,
        1026: 35,
        1027: 35,
        1028: 35,
        1029: 35,
        1030: 35,
        1031: 35,
        1032: 35,
        1033: 35,
        1034: 35,
        1035: 35,
        1036: 35,
        1037: 35,
        1038: 35,
        1039: 35,
        1040: 35,
        1041: 35,
        1042: 35,
        1043: 35,
        1044: 35,
        1045: 35,
        1046: 35,
        1047: 35,
        1048: 35,
        1049: 35,
        1050: 35,
        1051: 35,
        1052: 35,
        1053: 35,
        1054: 35,
        1055: 35,
        1056: 35,
        1057: 35,
        1058: 35,
        1059: 35,
        1060: 35,
        1061: 35,
        1062: 35,
        1063: 35,
        1064: 35,
        1065: 35,
        1066: 35,
        1067: 35,
        1068: 35,
        1069: 35,
        1070: 35,
        1071: 35,
        1072: 35,
        1073: 35,
        1074: 35,
        1075: 35,
        1076: 35,
        1077: 35,
        1078: 35,
        1079: 35,
        1080: 35,
        1081: 35,
        1082: 35,
        1083: 35,
        1084: 35,
        1085: 35,
        1086: 35,
        1087: 35,
        1088: 35,
        1089: 35,
        1090: 35,
        1091: 35,
        1092: 35,
        1093: 35,
        1094: 35,
        1095: 35,
        1096: 35,
        1097: 35,
        1098: 35,
        1099: 35,
        1100: 35,
        1101: 35,
        1102: 35,
        1103: 35,
        1104: 35,
        1105: 35,
        1106: 35,
        1107: 35,
        1108: 35,
        1109: 35,
        1110: 35,
        1111: 35,
        1112: 35,
        1113: 35,
        1114: 35,
        1115: 35,
        1116: 35,
        1117: 35,
        1118: 35,
        1119: 35,
        1120: 35,
        1121: 35,
        1122: 35,
        1123: 35,
        1124: 35,
        1125: 35,
        1126: 35,
        1127: 35,
        1128: 35,
        1129: 35,
        1130: 35,
        1131: 35,
        1132: 35,
        1133: 35,
        1134: 35,
        1135: 35,
        1136: 35,
        1137: 35,
        1138: 35,
        1139: 35,
        1140: 35,
        1141: 35,
        1142: 35,
        1143: 35,
        1144: 35,
        1145: 35,
        1146: 35,
        1147: 35,
        1148: 35,
        1149: 35,
        1150: 35,
        1151: 35,
        1152: 35,
        1153: 35,
        1154: 35,
        1155: 35,
        1156: 35,
        1157: 35,
        1158: 35,
        1159: 35,
        1160: 35,
        1161: 35,
        1162: 35,
        1163: 35,
        1164: 35,
        1165: 35,
        1166: 35,
        1167: 35,
        1168: 35,
        1169: 35,
        1170: 35,
        1171: 35,
        1172: 35,
        1173: 35,
        1174: 35,
        1175: 35,
        1176: 35,
        1177: 35,
        1178: 35,
        1179: 35,
        1180: 35,
        1181: 35,
        1182: 35,
        1183: 35,
        1184: 35,
        1185: 35,
        1186: 35,
        1187: 35,
        1188: 35,
        1189: 35,
        1190: 35,
        1191: 35,
        1192: 35,
        1193: 35,
        1194: 35,
        1195: 35,
        1196: 35,
        1197: 35,
        1198: 35,
        1199: 35,
        1200: 35,
        1201: 35,
        1202: 35,
        1203: 35,
        1204: 35,
        1205: 35,
        1206: 35,
        1207: 35,
        1208: 35,
        1209: 35,
        1210: 35,
        1211: 35,
        1212: 35,
        1213: 35,
        1214: 35,
        1215: 35,
        1216: 35,
        1217: 35,
        1218: 35,
        1219: 35,
        1220: 35,
        1221: 35,
        1222: 35,
        1223: 35,
        1224: 35,
        1225: 35,
        1226: 35,
        1227: 35,
        1228: 35
    }
    float focusDistance.timeSamples = {
        1001: 199.997,
        1002: 199.997,
        1003: 199.997,
        1004: 199.997,
        1005: 199.997,
        1006: 199.997,
        1007: 199.997,
        1008: 199.997,
        1009: 199.997,
        1010: 199.997,
        1011: 199.997,
        1012: 199.997,
        1013: 199.997,
        1014: 199.997,
        1015: 199.997,
        1016: 199.997,
        1017: 199.997,
        1018: 199.997,
        1019: 199.997,
        1020: 199.997,
        1021: 199.997,
        1022: 199.997,
        1023: 199.997,
        1024: 199.997,
        1025: 199.997,
        1026: 199.997,
        1027: 199.997,
        1028: 199.997,
        1029: 199.997,
        1030: 199.997,
        1031: 199.997,
        1032: 199.997,
        1033: 199.997,
        1034: 199.997,
        1035: 199.997,
        1036: 199.997,
        1037: 199.997,
        1038: 199.997,
        1039: 199.997,
        1040: 199.997,
        1041: 199.997,
        1042: 199.997,
        1043: 199.997,
        1044: 199.997,
        1045: 199.997,
        1046: 199.997,
        1047: 199.997,
        1048: 199.997,
        1049: 199.997,
        1050: 199.997,
        1051: 199.997,
        1052: 199.997,
        1053: 199.997,
        1054: 199.997,
        1055: 199.997,
        1056: 199.997,
        1057: 199.997,
        1058: 199.997,
        1059: 199.997,
        1060: 199.997,
        1061: 199.997,
        1062: 199.997,
        1063: 199.997,
        1064: 199.997,
        1065: 199.997,
        1066: 199.997,
        1067: 199.997,
        1068: 199.997,
        1069: 199.997,
        1070: 199.997,
        1071: 199.997,
        1072: 199.997,
        1073: 199.997,
        1074: 199.997,
        1075: 199.997,
        1076: 199.997,
        1077: 199.997,
        1078: 199.997,
        1079: 199.997,
        1080: 199.997,
        1081: 199.997,
        1082: 199.997,
        1083: 199.997,
        1084: 199.997,
        1085: 199.997,
        1086: 199.997,
        1087: 199.997,
        1088: 199.997,
        1089: 199.997,
        1090: 199.997,
        1091: 199.997,
        1092: 199.997,
        1093: 199.997,
        1094: 199.997,
        1095: 199.997,
        1096: 199.997,
        1097: 199.997,
        1098: 199.997,
        1099: 199.997,
        1100: 199.997,
        1101: 199.997,
        1102: 199.997,
        1103: 199.997,
        1104: 199.997,
        1105: 199.997,
        1106: 199.997,
        1107: 199.997,
        1108: 199.997,
        1109: 199.997,
        1110: 199.997,
        1111: 199.997,
        1112: 199.997,
        1113: 199.997,
        1114: 199.997,
        1115: 199.997,
        1116: 199.997,
        1117: 199.997,
        1118: 199.997,
        1119: 199.997,
        1120: 199.997,
        1121: 199.997,
        1122: 199.997,
        1123: 199.997,
        1124: 199.997,
        1125: 199.997,
        1126: 199.997,
        1127: 199.997,
        1128: 199.997,
        1129: 199.997,
        1130: 199.997,
        1131: 199.997,
        1132: 199.997,
        1133: 199.997,
        1134: 199.997,
        1135: 199.997,
        1136: 199.997,
        1137: 199.997,
        1138: 199.997,
        1139: 199.997,
        1140: 199.997,
        1141: 199.997,
        1142: 199.997,
        1143: 199.997,
        1144: 199.997,
        1145: 199.997,
        1146: 199.997,
        1147: 199.997,
        1148: 199.997,
        1149: 199.997,
        1150: 199.997,
        1151: 199.997,
        1152: 199.997,
        1153: 199.997,
        1154: 199.997,
        1155: 199.997,
        1156: 199.997,
        1157: 199.997,
        1158: 199.997,
        1159: 199.997,
        1160: 199.997,
        1161: 199.997,
        1162: 199.997,
        1163: 199.997,
        1164: 199.997,
        1165: 199.997,
        1166: 199.997,
        1167: 199.997,
        1168: 199.997,
        1169: 199.997,
        1170: 199.997,
        1171: 199.997,
        1172: 199.997,
        1173: 199.997,
        1174: 199.997,
        1175: 199.997,
        1176: 199.997,
        1177: 199.997,
        1178: 199.997,
        1179: 199.997,
        1180: 199.997,
        1181: 199.997,
        1182: 199.997,
        1183: 199.997,
        1184: 199.997,
        1185: 199.997,
        1186: 199.997,
        1187: 199.997,
        1188: 199.997,
        1189: 199.997,
        1190: 199.997,
        1191: 199.997,
        1192: 199.997,
        1193: 199.997,
        1194: 199.997,
        1195: 199.997,
        1196: 199.997,
        1197: 199.997,
        1198: 199.997,
        1199: 199.997,
        1200: 199.997,
        1201: 199.997,
        1202: 199.997,
        1203: 199.997,
        1204: 199.997,
        1205: 199.997,
        1206: 199.997,
        1207: 199.997,
        1208: 199.997,
        1209: 199.997,
        1210: 199.997,
        1211: 199.997,
        1212: 199.997,
        1213: 199.997,
        1214: 199.997,
        1215: 199.997,
        1216: 199.997,
        1217: 199.997,
        1218: 199.997,
        1219: 199.997,
        1220: 199.997,
        1221: 199.997,
        1222: 199.997,
        1223: 199.997,
        1224: 199.997,
        1225: 199.997,
        1226: 199.997,
        1227: 199.997,
        1228: 199.997
    }
}
